<?xml version="1.0" standalone="no"?>
<!DOCTYPE svg PUBLIC "-//W3C//DTD SVG 20010904//EN"
 "http://www.w3.org/TR/2001/REC-SVG-20010904/DTD/svg10.dtd">
<svg version="1.0" xmlns="http://www.w3.org/2000/svg"
 width="512.000000pt" height="512.000000pt" viewBox="0 0 512.000000 512.000000"
 preserveAspectRatio="xMidYMid meet">

<g transform="translate(0.000000,512.000000) scale(0.100000,-0.100000)"
fill="#000000" stroke="none">
<path d="M2470 4941 c-5 -11 -10 -31 -10 -45 0 -35 -45 -84 -88 -95 -42 -12
-76 -6 -114 20 -14 11 -32 19 -40 19 -17 0 -118 -101 -118 -119 0 -7 9 -24 20
-38 28 -36 34 -83 16 -126 -16 -39 -67 -77 -103 -77 -39 0 -53 -26 -53 -98 0
-37 4 -72 8 -79 4 -7 27 -16 51 -22 99 -22 138 -120 80 -202 -10 -15 -19 -33
-19 -41 0 -17 101 -118 119 -118 7 0 24 9 38 20 34 27 87 35 123 20 41 -17 80
-66 80 -100 0 -47 22 -60 100 -60 78 0 100 13 100 60 0 34 39 83 80 100 36 15
89 7 123 -20 14 -11 31 -20 39 -20 17 0 118 101 118 119 0 7 -9 25 -19 40 -28
39 -35 75 -22 114 16 46 51 77 102 88 24 6 47 15 51 22 4 7 8 42 8 79 0 72
-14 98 -53 98 -36 0 -87 38 -103 77 -18 43 -12 90 16 126 11 14 20 31 20 39 0
17 -101 118 -119 118 -7 0 -25 -8 -39 -19 -38 -26 -72 -32 -114 -20 -43 11
-88 60 -88 95 0 55 -14 64 -100 64 -68 0 -81 -3 -90 -19z m206 -309 c61 -31
97 -65 126 -119 89 -164 -4 -365 -188 -403 -183 -38 -355 123 -329 309 13 98
102 201 199 231 48 15 146 5 192 -18z"/>
<path d="M1625 3985 c-165 -85 -304 -156 -310 -158 -9 -4 43 -127 54 -127 7 0
605 301 614 310 7 6 -47 132 -56 129 -1 0 -137 -70 -302 -154z"/>
<path d="M652 4018 c-6 -6 -12 -23 -12 -36 0 -87 -118 -143 -195 -92 -45 30
-66 25 -118 -28 -48 -49 -58 -80 -32 -102 8 -7 20 -30 25 -51 20 -74 -42 -159
-117 -159 -34 0 -43 -21 -43 -96 0 -79 5 -88 61 -98 41 -7 83 -47 100 -93 12
-36 -1 -92 -27 -113 -27 -24 -16 -56 40 -109 30 -28 58 -51 62 -51 5 0 25 12
46 26 32 22 45 26 85 21 38 -4 54 -12 80 -41 21 -23 33 -46 33 -65 0 -44 18
-52 106 -49 l78 3 12 41 c18 62 31 82 66 100 40 21 107 14 144 -15 15 -11 31
-21 36 -21 16 0 118 102 118 117 0 8 -8 27 -19 41 -10 15 -22 38 -26 50 -19
64 34 145 103 158 57 10 62 19 62 98 0 78 -9 96 -49 96 -96 0 -153 129 -92
207 12 14 21 32 21 40 0 8 -21 36 -46 63 -52 56 -80 63 -121 30 -48 -37 -146
-19 -175 33 -7 12 -17 40 -23 62 l-10 40 -80 3 c-54 2 -84 -1 -93 -10z m181
-304 c108 -37 182 -144 181 -264 -2 -251 -309 -364 -481 -177 -43 47 -73 121
-73 182 0 114 89 232 200 266 43 13 124 10 173 -7z"/>
<path d="M3108 3914 c-21 -25 -38 -49 -38 -54 0 -9 710 -620 719 -619 9 1 81
89 81 100 0 10 -708 619 -718 618 -4 0 -24 -21 -44 -45z"/>
<path d="M2453 3657 c-2 -4 -7 -65 -10 -136 l-6 -128 64 -6 c44 -4 66 -2 71 6
4 7 8 42 8 78 0 36 3 93 6 127 l7 60 -68 4 c-37 1 -69 0 -72 -5z"/>
<path d="M4303 3392 c-7 -4 -16 -27 -22 -51 -18 -80 -88 -124 -161 -102 -21 6
-43 18 -50 26 -21 26 -44 17 -98 -38 -54 -55 -62 -76 -38 -97 27 -22 40 -79
27 -121 -14 -46 -62 -89 -101 -89 -47 0 -60 -22 -60 -100 0 -78 13 -100 60
-100 39 0 87 -43 101 -89 13 -42 0 -99 -27 -121 -7 -7 -14 -20 -14 -29 0 -20
100 -121 119 -121 7 0 25 9 40 19 39 28 75 35 114 22 46 -16 77 -51 88 -102 6
-24 15 -47 22 -51 7 -4 42 -8 79 -8 72 0 98 14 98 53 0 36 38 87 77 103 43 18
90 12 126 -16 14 -11 31 -20 39 -20 17 0 118 101 118 119 0 7 -8 25 -19 39
-26 38 -32 72 -20 114 11 43 60 88 95 88 55 0 64 14 64 100 0 86 -9 100 -64
100 -35 0 -84 45 -95 88 -12 42 -6 76 20 114 11 14 19 32 19 40 0 17 -101 118
-119 118 -7 0 -24 -9 -38 -20 -36 -28 -83 -34 -126 -16 -39 16 -77 67 -77 103
0 39 -26 53 -98 53 -37 0 -72 -4 -79 -8z m155 -307 c106 -32 188 -129 199
-237 19 -185 -158 -341 -337 -298 -107 26 -188 109 -210 216 -29 138 55 276
192 319 57 18 94 18 156 0z"/>
<path d="M2311 3238 c-24 -13 -32 -32 -46 -111 -9 -55 -73 -121 -136 -142 -67
-23 -125 -13 -190 31 -28 19 -61 34 -73 34 -27 0 -196 -168 -196 -195 0 -10
11 -33 26 -52 73 -96 71 -206 -4 -287 -33 -35 -97 -65 -137 -66 -17 0 -41 -7
-53 -16 -21 -14 -22 -22 -22 -144 0 -122 1 -130 22 -144 12 -9 35 -16 51 -16
67 0 146 -55 178 -125 34 -73 21 -154 -35 -228 -15 -19 -26 -42 -26 -52 0 -27
169 -195 196 -195 12 0 45 15 73 34 93 63 188 57 267 -16 43 -40 52 -59 71
-153 12 -58 35 -66 171 -63 129 3 135 7 146 85 23 168 210 247 341 143 61 -48
79 -42 178 59 48 49 87 95 87 102 0 8 -17 38 -37 68 -86 125 -40 283 96 329
19 7 47 12 62 12 16 0 38 9 49 20 18 18 20 33 20 140 0 107 -2 122 -20 140
-11 11 -33 20 -49 20 -73 0 -149 49 -182 116 -33 70 -25 155 24 225 20 30 37
60 37 68 0 7 -39 53 -87 102 -99 101 -117 107 -178 59 -131 -104 -318 -25
-341 143 -11 78 -17 82 -146 85 -77 2 -121 -1 -137 -10z m234 -503 c136 -36
241 -124 303 -252 36 -76 37 -81 37 -193 0 -112 -1 -117 -37 -193 -140 -292
-510 -356 -738 -128 -178 177 -178 465 0 642 117 118 280 164 435 124z"/>
<path d="M1307 3010 c-20 -27 -37 -51 -37 -53 0 -7 208 -167 217 -167 5 0 26
23 47 51 33 42 37 52 25 63 -36 33 -199 156 -207 156 -4 0 -24 -22 -45 -50z"/>
<path d="M757 2733 c-38 -4 -38 -5 -33 -41 3 -20 24 -304 48 -630 23 -326 45
-597 48 -601 3 -4 33 -6 68 -3 l62 4 0 40 c0 46 -76 1105 -86 1186 -6 58 -1
56 -107 45z"/>
<path d="M3590 2618 c-63 -23 -116 -43 -118 -44 -8 -6 34 -117 46 -121 10 -4
246 71 261 83 1 1 -6 29 -16 61 -14 42 -25 59 -39 60 -10 1 -71 -17 -134 -39z"/>
<path d="M4245 2076 c-10 -70 -24 -259 -19 -267 3 -5 34 -9 70 -9 54 0 64 3
65 18 0 9 6 75 13 146 8 88 9 129 1 131 -5 2 -36 5 -67 8 l-58 4 -5 -31z"/>
<path d="M4102 1648 c-6 -7 -13 -31 -17 -53 -11 -59 -31 -92 -73 -119 -61 -40
-130 -38 -195 5 -30 19 -53 28 -65 25 -25 -8 -142 -130 -142 -148 0 -7 14 -33
30 -57 42 -62 44 -133 4 -193 -27 -42 -60 -62 -119 -73 -62 -11 -65 -16 -65
-125 0 -109 3 -114 65 -125 59 -11 92 -31 119 -73 40 -61 38 -130 -5 -195 -19
-30 -28 -53 -25 -65 8 -25 130 -142 148 -142 7 0 33 14 57 30 63 43 132 44
193 4 42 -27 62 -60 73 -119 11 -62 16 -65 125 -65 109 0 114 3 125 65 11 59
31 92 73 119 61 40 130 39 193 -4 24 -16 50 -30 57 -30 18 0 140 117 148 142
3 12 -6 35 -25 65 -44 66 -46 134 -5 195 27 42 60 62 119 73 62 11 65 16 65
125 0 109 -3 114 -65 125 -59 11 -92 31 -119 73 -40 61 -39 130 4 193 16 24
30 50 30 57 0 18 -117 140 -142 148 -12 3 -35 -6 -65 -25 -65 -43 -134 -45
-195 -5 -42 27 -62 60 -73 119 -11 62 -16 65 -125 65 -66 0 -101 -4 -108 -12z
m208 -394 c101 -30 180 -99 227 -199 24 -51 28 -73 28 -145 0 -72 -4 -94 -28
-146 -36 -77 -104 -145 -182 -181 -51 -24 -73 -28 -145 -28 -72 0 -94 4 -145
28 -169 79 -250 259 -195 438 19 64 29 80 88 139 55 54 78 70 132 88 78 25
148 28 220 6z"/>
<path d="M3266 1573 c-20 -26 -36 -53 -36 -60 0 -10 174 -137 204 -149 7 -3
29 20 49 50 l37 55 -33 24 c-42 31 -159 112 -174 121 -8 4 -25 -11 -47 -41z"/>
<path d="M1559 1415 c-57 -54 -113 -106 -124 -116 -19 -19 -19 -19 30 -69 l48
-49 119 111 c65 60 118 116 118 122 0 7 -20 31 -44 55 l-44 43 -103 -97z"/>
<path d="M857 1306 c-8 -8 -17 -33 -21 -54 -7 -46 -47 -86 -96 -97 -34 -7 -92
9 -110 31 -7 7 -20 14 -29 14 -17 0 -121 -98 -121 -114 0 -5 12 -33 26 -61 22
-47 24 -58 14 -93 -13 -50 -55 -87 -109 -96 -48 -7 -54 -20 -49 -116 3 -62 4
-65 33 -74 69 -20 87 -30 107 -59 29 -41 29 -108 -1 -148 -30 -40 -23 -66 34
-118 51 -47 64 -49 105 -19 39 29 107 29 147 0 29 -20 39 -38 59 -107 9 -29
12 -30 74 -33 96 -5 109 1 116 49 16 101 122 146 206 88 14 -11 32 -19 40 -19
17 0 118 101 118 117 0 7 -11 29 -25 49 -29 42 -31 70 -11 119 16 37 67 75
103 75 39 0 53 26 53 100 0 60 -3 71 -22 84 -12 9 -32 16 -44 16 -29 0 -78 42
-94 80 -15 36 -7 89 20 123 11 14 20 31 20 39 0 17 -101 118 -119 118 -7 0
-24 -9 -38 -20 -34 -27 -87 -35 -123 -20 -38 16 -80 65 -80 94 0 12 -7 32 -16
44 -13 19 -24 22 -84 22 -46 0 -73 -5 -83 -14z m198 -315 c138 -63 199 -235
132 -374 -50 -101 -132 -152 -247 -152 -114 0 -196 50 -247 149 -118 232 123
484 362 377z"/>
<path d="M2465 889 c-385 -20 -724 -39 -754 -41 l-55 -3 3 -65 c1 -36 4 -67 7
-69 2 -2 362 15 801 38 439 23 810 41 826 41 27 0 27 0 27 70 l0 70 -77 -1
c-43 -1 -393 -19 -778 -40z"/>
</g>
</svg>
